<svg width="89" height="26" viewBox="0 0 89 26" fill="none" xmlns="http://www.w3.org/2000/svg">
<path d="M13.0273 19.5H0.910156V2.625H13.0273V4.78125H5.5625V9.99609H11.3281V12.1406H5.5625V17.3438H13.0273V19.5ZM22.9883 12.1289H15.1133V9.97266H22.9883V12.1289ZM37.9414 15.1758C37.9414 15.7695 37.8555 16.2969 37.6836 16.7578C37.5117 17.2188 37.2773 17.6211 36.9805 17.9648C36.6836 18.3008 36.332 18.5859 35.9258 18.8203C35.5195 19.0469 35.082 19.2305 34.6133 19.3711C34.1523 19.5117 33.668 19.6133 33.1602 19.6758C32.6523 19.7383 32.1484 19.7695 31.6484 19.7695C30.9766 19.7695 30.3828 19.7266 29.8672 19.6406C29.3516 19.5547 28.8594 19.418 28.3906 19.2305C27.9219 19.0352 27.4531 18.7852 26.9844 18.4805C26.5234 18.1758 26.0078 17.8047 25.4375 17.3672L27.7461 15.4805C27.957 15.8789 28.2344 16.2422 28.5781 16.5703C28.9297 16.8906 29.293 17.168 29.668 17.4023C30.043 17.6367 30.4062 17.8164 30.7578 17.9414C31.1094 18.0664 31.3945 18.1289 31.6133 18.1289C31.793 18.1289 31.9961 18.125 32.2227 18.1172C32.4492 18.1016 32.6797 18.0781 32.9141 18.0469C33.1484 18.0078 33.3789 17.9531 33.6055 17.8828C33.832 17.8125 34.0312 17.7188 34.2031 17.6016C34.3828 17.4766 34.5234 17.3242 34.625 17.1445C34.7344 16.957 34.7891 16.7344 34.7891 16.4766C34.7891 16.2109 34.7188 15.9805 34.5781 15.7852C34.4453 15.582 34.2695 15.4062 34.0508 15.2578C33.832 15.1094 33.582 14.9844 33.3008 14.8828C33.0195 14.7812 32.7344 14.6914 32.4453 14.6133C32.1641 14.5352 31.8906 14.4688 31.625 14.4141C31.3594 14.3516 31.1289 14.293 30.9336 14.2383C30.5742 14.1367 30.1953 14.0352 29.7969 13.9336C29.3984 13.8242 29.0039 13.7031 28.6133 13.5703C28.2227 13.4297 27.8477 13.2656 27.4883 13.0781C27.1367 12.8906 26.8242 12.668 26.5508 12.4102C26.2852 12.1445 26.0703 11.8359 25.9062 11.4844C25.75 11.125 25.6719 10.707 25.6719 10.2305C25.6719 9.35547 25.8438 8.625 26.1875 8.03906C26.5391 7.44531 27 6.97266 27.5703 6.62109C28.1406 6.26172 28.7891 6.00781 29.5156 5.85938C30.2422 5.71094 30.9805 5.63672 31.7305 5.63672C32.2461 5.63672 32.7891 5.69141 33.3594 5.80078C33.9297 5.90234 34.4844 6.05859 35.0234 6.26953C35.5625 6.47266 36.0664 6.72266 36.5352 7.01953C37.0039 7.31641 37.3945 7.65625 37.707 8.03906L35.3984 9.9375C35.2266 9.46875 35 9.06641 34.7188 8.73047C34.4453 8.39453 34.1445 8.12109 33.8164 7.91016C33.4961 7.69141 33.1641 7.53125 32.8203 7.42969C32.4844 7.32812 32.1719 7.27734 31.8828 7.27734C31.6016 7.27734 31.2852 7.28906 30.9336 7.3125C30.582 7.33594 30.25 7.40234 29.9375 7.51172C29.6328 7.62109 29.3711 7.78906 29.1523 8.01562C28.9414 8.23438 28.8359 8.53906 28.8359 8.92969C28.8359 9.21094 28.8984 9.45312 29.0234 9.65625C29.1562 9.85156 29.3281 10.0234 29.5391 10.1719C29.75 10.3125 29.9883 10.4336 30.2539 10.5352C30.5273 10.6289 30.8047 10.7148 31.0859 10.793C31.3672 10.8633 31.6406 10.9258 31.9062 10.9805C32.1719 11.0352 32.4102 11.0938 32.6211 11.1562C32.9805 11.2578 33.3594 11.3633 33.7578 11.4727C34.1641 11.5742 34.5625 11.6953 34.9531 11.8359C35.3438 11.9688 35.7188 12.1289 36.0781 12.3164C36.4453 12.4961 36.7656 12.7188 37.0391 12.9844C37.3125 13.25 37.5312 13.5625 37.6953 13.9219C37.8594 14.2734 37.9414 14.6914 37.9414 15.1758ZM54.2891 11.7422C54.2891 12.6562 54.1758 13.6094 53.9492 14.6016C53.7305 15.5938 53.4219 16.5664 53.0234 17.5195C52.625 18.4727 52.1484 19.3672 51.5938 20.2031C51.0391 21.0469 50.4297 21.7734 49.7656 22.3828L48.2773 21.5742C48.4883 21.1836 48.6875 20.7461 48.875 20.2617C49.0625 19.7773 49.2305 19.2656 49.3789 18.7266C49.5352 18.1797 49.6719 17.6172 49.7891 17.0391C49.9141 16.4609 50.0156 15.8906 50.0938 15.3281C50.1797 14.7578 50.2422 14.207 50.2812 13.6758C50.3281 13.1367 50.3516 12.6367 50.3516 12.1758C50.3516 11.8711 50.3398 11.5469 50.3164 11.2031C50.293 10.8516 50.2422 10.5039 50.1641 10.1602C50.0938 9.80859 49.9961 9.47266 49.8711 9.15234C49.7461 8.83203 49.5781 8.55078 49.3672 8.30859C49.1641 8.06641 48.9141 7.87109 48.6172 7.72266C48.3281 7.57422 47.9844 7.5 47.5859 7.5C47.1953 7.5 46.8477 7.58984 46.543 7.76953C46.2383 7.94141 45.9688 8.17188 45.7344 8.46094C45.5 8.74219 45.2969 9.06641 45.125 9.43359C44.9609 9.80078 44.8242 10.1797 44.7148 10.5703C44.6133 10.9531 44.5391 11.332 44.4922 11.707C44.4453 12.082 44.4219 12.418 44.4219 12.7148V19.5H40.4492V0.984375H44.4102V7.95703C44.918 7.21484 45.5391 6.64453 46.2734 6.24609C47.0156 5.83984 47.8359 5.63672 48.7344 5.63672C49.6719 5.63672 50.4883 5.78906 51.1836 6.09375C51.8789 6.39844 52.457 6.82422 52.918 7.37109C53.3789 7.91016 53.7227 8.55469 53.9492 9.30469C54.1758 10.0469 54.2891 10.8594 54.2891 11.7422ZM71.1992 12.7031C71.1992 13.4062 71.1055 14.0664 70.918 14.6836C70.7305 15.3008 70.4688 15.8711 70.1328 16.3945C69.8047 16.918 69.4062 17.3906 68.9375 17.8125C68.4688 18.2266 67.9531 18.5781 67.3906 18.8672C66.8359 19.1562 66.2383 19.3789 65.5977 19.5352C64.9648 19.6914 64.3125 19.7695 63.6406 19.7695C62.9688 19.7695 62.3164 19.6914 61.6836 19.5352C61.0508 19.3789 60.4531 19.1562 59.8906 18.8672C59.3359 18.5781 58.8242 18.2266 58.3555 17.8125C57.8867 17.3906 57.4844 16.918 57.1484 16.3945C56.8203 15.8711 56.5625 15.3008 56.375 14.6836C56.1875 14.0586 56.0938 13.3984 56.0938 12.7031C56.0938 12.0078 56.1875 11.3516 56.375 10.7344C56.5625 10.1094 56.8203 9.53516 57.1484 9.01172C57.4844 8.48828 57.8867 8.01953 58.3555 7.60547C58.8242 7.18359 59.3359 6.82813 59.8906 6.53906C60.4531 6.25 61.0508 6.02734 61.6836 5.87109C62.3164 5.71484 62.9688 5.63672 63.6406 5.63672C64.3125 5.63672 64.9648 5.71484 65.5977 5.87109C66.2383 6.02734 66.8359 6.25 67.3906 6.53906C67.9531 6.82813 68.4688 7.18359 68.9375 7.60547C69.4062 8.01953 69.8047 8.48828 70.1328 9.01172C70.4688 9.53516 70.7305 10.1094 70.918 10.7344C71.1055 11.3516 71.1992 12.0078 71.1992 12.7031ZM67.168 12.7031C67.168 12.3281 67.1445 11.9336 67.0977 11.5195C67.0586 11.0977 66.9883 10.6875 66.8867 10.2891C66.7852 9.88281 66.6445 9.49609 66.4648 9.12891C66.293 8.75391 66.0781 8.42969 65.8203 8.15625C65.5625 7.875 65.2539 7.65234 64.8945 7.48828C64.5352 7.31641 64.1172 7.23047 63.6406 7.23047C63.1875 7.23047 62.7852 7.31641 62.4336 7.48828C62.082 7.66016 61.7734 7.89062 61.5078 8.17969C61.25 8.46094 61.0312 8.78906 60.8516 9.16406C60.6797 9.53906 60.5391 9.92969 60.4297 10.3359C60.3203 10.7344 60.2422 11.1406 60.1953 11.5547C60.1484 11.9609 60.125 12.3438 60.125 12.7031C60.125 13.0625 60.1484 13.4492 60.1953 13.8633C60.2422 14.2695 60.3203 14.6758 60.4297 15.082C60.5391 15.4883 60.6797 15.8789 60.8516 16.2539C61.0312 16.6211 61.25 16.9492 61.5078 17.2383C61.7734 17.5195 62.082 17.7461 62.4336 17.918C62.7852 18.0898 63.1875 18.1758 63.6406 18.1758C64.1094 18.1758 64.5234 18.0938 64.8828 17.9297C65.2422 17.7578 65.5508 17.5312 65.8086 17.25C66.0742 16.9688 66.293 16.6445 66.4648 16.2773C66.6367 15.9102 66.7734 15.5234 66.875 15.1172C66.9844 14.7109 67.0586 14.3008 67.0977 13.8867C67.1445 13.4727 67.168 13.0781 67.168 12.7031ZM88.0977 12.7031C88.0977 13.6875 87.9492 14.6094 87.6523 15.4688C87.3555 16.3281 86.9258 17.0781 86.3633 17.7188C85.8008 18.3516 85.1133 18.8516 84.3008 19.2188C83.4883 19.5859 82.5664 19.7695 81.5352 19.7695C80.7461 19.7695 80.0195 19.6172 79.3555 19.3125C78.6992 19 78.1367 18.5234 77.668 17.8828V25.7461H73.707V5.96484H75.2305L76.9883 8.90625C77.1602 8.41406 77.3945 7.96875 77.6914 7.57031C77.9961 7.16406 78.3438 6.82031 78.7344 6.53906C79.1328 6.25 79.5664 6.02734 80.0352 5.87109C80.5117 5.71484 81.0117 5.63672 81.5352 5.63672C82.5664 5.63672 83.4883 5.82031 84.3008 6.1875C85.1133 6.55469 85.8008 7.05859 86.3633 7.69922C86.9258 8.33203 87.3555 9.07812 87.6523 9.9375C87.9492 10.7969 88.0977 11.7188 88.0977 12.7031ZM84.0781 12.7031C84.0781 12.3594 84.0586 11.9961 84.0195 11.6133C83.9883 11.2227 83.9297 10.8359 83.8438 10.4531C83.7578 10.0703 83.6367 9.70312 83.4805 9.35156C83.332 9 83.1406 8.69141 82.9062 8.42578C82.6719 8.15234 82.3867 7.9375 82.0508 7.78125C81.7227 7.61719 81.3398 7.53516 80.9023 7.53516C80.4492 7.53516 80.0547 7.61328 79.7188 7.76953C79.3906 7.92578 79.1055 8.14062 78.8633 8.41406C78.6289 8.67969 78.4336 8.98828 78.2773 9.33984C78.1289 9.68359 78.0117 10.0469 77.9258 10.4297C77.8398 10.8125 77.7773 11.1992 77.7383 11.5898C77.707 11.9805 77.6914 12.3516 77.6914 12.7031C77.6914 13.0156 77.7148 13.3633 77.7617 13.7461C77.8086 14.1211 77.8828 14.5 77.9844 14.8828C78.0859 15.2656 78.2188 15.6367 78.3828 15.9961C78.5469 16.3555 78.7461 16.6758 78.9805 16.957C79.2227 17.2383 79.5 17.4648 79.8125 17.6367C80.1328 17.8008 80.4961 17.8828 80.9023 17.8828C81.3477 17.8828 81.7344 17.8047 82.0625 17.6484C82.3906 17.4844 82.6719 17.2695 82.9062 17.0039C83.1406 16.7305 83.332 16.418 83.4805 16.0664C83.6367 15.7148 83.7578 15.3477 83.8438 14.9648C83.9297 14.582 83.9883 14.1953 84.0195 13.8047C84.0586 13.4141 84.0781 13.0469 84.0781 12.7031Z" fill="#2F44FF"/>
</svg>
