<svg width="47" height="47" viewBox="0 0 47 47" fill="none" xmlns="http://www.w3.org/2000/svg">
<path d="M23.5022 16.6252C19.704 16.6252 16.6271 19.7031 16.6271 23.5002C16.6271 27.2981 19.7051 30.3752 23.5022 30.3752C27.3001 30.3752 30.3772 27.2972 30.3772 23.5002C30.3772 19.7022 27.2992 16.6252 23.5022 16.6252ZM23.5022 12.0418C29.8281 12.0418 34.9605 17.1685 34.9605 23.5002C34.9605 29.8263 29.8338 34.9585 23.5022 34.9585C17.176 34.9585 12.0438 29.8318 12.0438 23.5002C12.0438 17.1741 17.1705 12.0418 23.5022 12.0418ZM38.398 11.467C38.398 13.0485 37.1128 14.3316 35.5334 14.3316C33.9519 14.3316 32.6688 13.0465 32.6688 11.467C32.6688 9.88743 33.9538 8.60433 35.5334 8.60433C37.1108 8.60233 38.398 9.88743 38.398 11.467ZM23.5022 5.16683C17.8314 5.16683 16.9072 5.18184 14.2697 5.29929C12.4727 5.38364 11.2682 5.62532 10.149 6.05982C9.1544 6.44556 8.43695 6.90616 7.67252 7.67059C6.90516 8.43795 6.44538 9.15348 6.0612 10.1485C5.6257 11.2703 5.38409 12.4729 5.30124 14.2674C5.18265 16.7975 5.16878 17.6817 5.16878 23.5002C5.16878 29.1709 5.18379 30.0951 5.30122 32.7324C5.38562 34.5286 5.62762 35.7349 6.06107 36.8514C6.44781 37.8474 6.90935 38.5665 7.67009 39.3273C8.44048 40.0966 9.15814 40.558 10.1437 40.9384C11.2766 41.3763 12.4803 41.6183 14.2693 41.701C16.7994 41.8195 17.6837 41.8335 23.5022 41.8335C29.1729 41.8335 30.0971 41.8184 32.7344 41.701C34.5267 41.6169 35.7339 41.3742 36.8534 40.9411C37.8466 40.5554 38.568 40.0923 39.3293 39.3321C40.0998 38.5605 40.5602 37.8446 40.9411 36.8567C41.3778 35.728 41.6203 34.5226 41.703 32.7331C41.8215 30.2028 41.8355 29.3185 41.8355 23.5002C41.8355 17.8295 41.8204 16.9052 41.703 14.2679C41.6187 12.4751 41.376 11.2661 40.9424 10.147C40.5577 9.1552 40.0954 8.43555 39.3316 7.67059C38.563 6.90196 37.8494 6.44313 36.8536 6.05925C35.7328 5.62411 34.5283 5.38215 32.7348 5.29931C30.2048 5.18069 29.3205 5.16683 23.5022 5.16683ZM23.5022 0.583496C29.7277 0.583496 30.505 0.606413 32.9496 0.720996C35.3881 0.833677 37.0516 1.21943 38.5126 1.78662C40.023 2.36909 41.2988 3.15589 42.5725 4.42967C43.8444 5.70347 44.6313 6.98297 45.2157 8.48975C45.7808 9.94878 46.1667 11.614 46.2813 14.0528C46.3902 16.4972 46.4188 17.2745 46.4188 23.5002C46.4188 29.7259 46.3959 30.503 46.2813 32.9476C46.1686 35.3863 45.7808 37.0496 45.2157 38.5106C44.6332 40.0212 43.8444 41.2968 42.5725 42.5707C41.2988 43.8426 40.0173 44.6293 38.5126 45.2137C37.0516 45.7791 35.3881 46.1647 32.9496 46.2793C30.505 46.3882 29.7277 46.4168 23.5022 46.4168C17.2764 46.4168 16.4992 46.3939 14.0547 46.2793C11.616 46.1666 9.95454 45.7791 8.4917 45.2137C6.983 44.6312 5.7054 43.8426 4.43162 42.5707C3.15785 41.2968 2.37295 40.0155 1.78857 38.5106C1.22139 37.0496 0.837533 35.3863 0.72295 32.9476C0.614095 30.503 0.585449 29.7259 0.585449 23.5002C0.585449 17.2745 0.608366 16.4972 0.72295 14.0528C0.835608 11.6121 1.22139 9.95068 1.78857 8.48975C2.37102 6.98107 3.15785 5.70347 4.43162 4.42967C5.7054 3.15589 6.98493 2.371 8.4917 1.78662C9.95264 1.21943 11.6141 0.835579 14.0547 0.720996C16.4992 0.612142 17.2764 0.583496 23.5022 0.583496Z" fill="black"/>
</svg>
