<svg width="31" height="31" viewBox="0 0 31 31" fill="none" xmlns="http://www.w3.org/2000/svg">
<path d="M6.507 10.7502H26.2531L26.9614 7.91683H9.34033V5.0835H28.7759C29.5583 5.0835 30.1926 5.71777 30.1926 6.50016C30.1926 6.61599 30.1784 6.73139 30.1502 6.84376L26.6085 21.0104C26.451 21.6411 25.8843 22.0835 25.2342 22.0835H5.09033C4.30794 22.0835 3.67367 21.4493 3.67367 20.6668V3.66683H0.840332V0.833496H5.09033C5.87274 0.833496 6.507 1.46777 6.507 2.25016V10.7502ZM6.507 30.5835C4.94219 30.5835 3.67367 29.315 3.67367 27.7502C3.67367 26.1853 4.94219 24.9168 6.507 24.9168C8.07181 24.9168 9.34033 26.1853 9.34033 27.7502C9.34033 29.315 8.07181 30.5835 6.507 30.5835ZM23.507 30.5835C21.9422 30.5835 20.6737 29.315 20.6737 27.7502C20.6737 26.1853 21.9422 24.9168 23.507 24.9168C25.0719 24.9168 26.3404 26.1853 26.3404 27.7502C26.3404 29.315 25.0719 30.5835 23.507 30.5835Z" fill="#2F44FF"/>
</svg>
